<svg xmlns="http://www.w3.org/2000/svg" width="32" height="32" viewBox="0 0 24 24" fill="none" stroke="#D97706" stroke-width="2" stroke-linecap="round" stroke-linejoin="round">
  <path d="M10 5.172C10 3.782 8.882 2.664 7.492 2.664c-1.428 0-2.585 1.157-2.585 2.585 0 1.428 1.157 2.585 2.585 2.585h2.508"/>
  <path d="M14 5.172c0-1.39 1.118-2.508 2.508-2.508 1.428 0 2.585 1.157 2.585 2.585 0 1.428-1.157 2.585-2.585 2.585h-2.508"/>
  <path d="M12 11c0 2.209-1.343 4-3 4s-3-1.791-3-4 1.343-4 3-4 3 1.791 3 4Z"/>
  <path d="M12 11c0 2.209 1.343 4 3 4s3-1.791 3-4-1.343-4-3-4-3 1.791 3 4Z"/>
  <path d="M12 15c-1.657 0-3 1.343-3 3s1.343 3 3 3 3-1.343 3-3-1.343-3-3-3Z"/>
  <path d="M12 18h.01"/>
  <path d="M16 11c0 0-.5 1-2.5 1S11 11 11 11"/>
  <path d="M8 11c0 0 .5 1 2.5 1s2.5-1 2.5-1"/>
</svg>
